<svg xmlns="http://www.w3.org/2000/svg" viewBox="0 0 348 285" width="348" height="285">
  <g transform="translate(0,285) scale(0.1,-0.1)" fill="#000000" stroke="none">
    <path d="M1679 2197 c-19 -12 -41 -36 -49 -52 -30 -63 -6 -151 50 -180 l30
-16 0 -293 c0 -320 -3 -298 68 -476 29 -73 30 -79 30 -251 0 -187 8 -226 51
-249 12 -6 106 -10 233 -10 l213 0 -150 51 c-149 51 -189 74 -206 116 -4 12
-9 65 -10 117 l-1 95 45 78 46 78 99 49 98 48 38 -26 c70 -47 166 -30 206 37
26 42 26 112 0 154 -65 107 -242 72 -266 -54 -4 -22 -14 -37 -28 -43 -11 -4
-56 -24 -98 -44 -55 -27 -84 -35 -102 -30 -24 6 -28 1 -50 -47 l-25 -53 -21
50 c-12 27 -22 61 -22 75 -1 15 22 67 51 116 51 88 55 92 148 150 90 57 97 60
122 47 81 -42 190 11 207 101 13 73 -45 155 -120 169 -85 16 -175 -69 -163
-153 4 -36 4 -37 -75 -84 -45 -26 -92 -47 -108 -47 -25 0 -32 -9 -71 -85 -23
-47 -47 -85 -52 -85 -5 0 -6 7 -3 16 3 9 6 121 6 249 l0 233 34 21 c37 23 60
68 60 115 0 74 -64 136 -139 136 -27 0 -54 -8 -76 -23z m101 -7 c3 -1 9 -2 14
-1 22 4 76 -69 76 -103 0 -8 -5 -27 -12 -43 -6 -15 -10 -32 -9 -36 1 -5 -3 -6
-8 -3 -5 3 -12 -1 -15 -10 -3 -8 -10 -13 -15 -9 -5 3 -12 1 -16 -5 -4 -6 -12
-7 -18 -3 -7 4 -5 -2 3 -12 9 -11 10 -16 3 -11 -7 4 -13 4 -14 -1 -3 -51 -3
-510 0 -507 3 2 15 -6 28 -18 21 -20 23 -20 17 -4 -5 14 -4 17 4 12 7 -4 12
-3 12 3 0 19 64 120 72 114 5 -3 8 3 6 13 -2 15 3 19 28 18 23 0 30 4 26 14
-4 12 -1 12 19 2 21 -12 22 -11 12 1 -10 12 -8 15 8 16 10 1 26 9 35 17 8 9
20 16 25 16 6 0 7 5 3 12 -5 8 -2 9 9 5 10 -4 20 0 26 11 8 13 14 15 28 6 14
-9 21 -8 31 2 6 7 8 15 3 19 -5 3 -11 -1 -14 -7 -4 -10 -7 -10 -18 0 -12 11
-11 16 5 28 12 8 15 14 7 14 -17 0 -5 71 14 86 8 6 11 15 7 19 -4 5 -2 5 4 2
7 -4 14 -1 17 7 6 15 47 29 47 15 0 -5 5 -9 11 -9 5 0 7 5 4 10 -7 11 8 14 19
3 4 -4 16 -8 26 -8 11 0 20 -4 20 -10 1 -5 11 -14 23 -18 16 -6 18 -10 8 -16
-10 -7 -10 -9 2 -14 16 -6 22 -77 6 -77 -5 0 -8 -3 -7 -7 4 -18 -26 -63 -39
-59 -8 3 -12 2 -9 -3 3 -4 -8 -8 -25 -9 -17 0 -33 -3 -36 -6 -3 -3 -15 0 -27
7 -42 23 -111 8 -144 -32 -10 -12 -12 -13 -6 -1 6 11 2 10 -13 -3 -11 -9 -23
-14 -28 -10 -4 5 -5 2 -1 -5 4 -7 0 -15 -11 -19 -10 -4 -24 -14 -31 -22 -11
-13 -12 -13 -6 -1 6 12 4 13 -7 3 -16 -16 -33 -17 -23 -1 5 7 3 8 -5 3 -9 -5
-9 -11 -3 -17 13 -13 4 -40 -10 -32 -6 4 -8 1 -6 -7 7 -18 -10 -51 -23 -44 -5
4 -9 -4 -9 -17 0 -14 -7 -33 -16 -44 -8 -10 -13 -14 -10 -7 4 6 2 14 -2 17 -5
3 -8 -5 -8 -17 1 -12 -2 -28 -7 -35 -12 -16 -3 -82 16 -122 10 -19 11 -28 4
-24 -7 3 -4 -1 5 -9 10 -8 15 -17 12 -20 -3 -3 5 -3 18 0 25 6 58 36 58 52 0
14 34 31 64 31 14 0 28 5 31 11 4 6 14 8 22 5 8 -3 11 -1 8 4 -5 9 8 12 31 9
4 0 10 3 13 8 3 5 22 16 41 25 25 12 38 14 47 6 10 -8 12 -7 8 4 -3 8 2 21 11
29 15 12 17 12 9 0 -6 -10 -4 -12 5 -6 10 6 9 11 -5 22 -11 7 -14 13 -7 13 6
0 9 7 6 15 -4 9 1 18 11 21 9 4 14 13 11 20 -3 8 1 14 8 14 8 0 17 7 20 16 3
8 10 12 16 9 5 -3 10 -2 10 3 0 13 83 7 88 -6 2 -7 8 -10 13 -6 5 3 9 0 9 -7
0 -7 3 -9 6 -6 4 4 15 -9 25 -28 15 -27 17 -43 11 -72 -5 -23 -14 -37 -22 -35
-8 2 -10 -3 -7 -13 8 -18 -43 -47 -81 -46 -51 2 -61 4 -55 14 3 5 0 8 -8 5 -7
-2 -22 4 -33 14 -20 18 -56 18 -79 0 -7 -5 -29 -15 -51 -22 -29 -9 -35 -15
-25 -22 10 -7 9 -8 -5 -4 -11 4 -22 2 -25 -3 -4 -5 -13 -11 -21 -13 -18 -4
-70 -55 -70 -69 0 -6 -7 -17 -15 -26 -8 -8 -13 -18 -10 -23 3 -4 -3 -14 -13
-21 -16 -13 -16 -12 -2 6 11 15 11 17 0 8 -7 -7 -16 -23 -18 -35 -8 -47 -13
-221 -6 -237 4 -9 8 -23 10 -31 2 -8 8 -16 13 -18 6 -2 11 -10 11 -18 0 -9 4
-13 9 -10 5 4 11 3 13 -2 4 -11 77 -52 92 -52 7 0 20 -6 29 -12 14 -11 1 -13
-78 -14 -65 -1 -95 2 -95 10 0 8 -2 8 -8 0 -12 -18 -51 2 -63 33 -7 17 -12
103 -13 210 0 99 -5 179 -9 176 -5 -3 -4 5 3 17 8 15 8 20 1 16 -6 -4 -11 0
-11 8 0 9 -4 16 -10 16 -5 0 -6 7 -3 17 5 12 3 14 -8 8 -12 -8 -12 -6 0 8 8
10 11 20 7 24 -3 3 -6 0 -6 -7 0 -15 -7 -11 -10 5 -1 6 -5 15 -10 20 -4 6 -15
33 -24 60 -13 42 -15 94 -13 318 1 147 -1 267 -4 267 -3 0 -6 7 -6 15 0 9 4
11 11 6 8 -6 11 2 12 26 1 23 -1 30 -7 22 -8 -13 -13 -5 -10 14 1 5 -3 6 -9 2
-6 -3 -8 -11 -5 -16 11 -17 -4 -9 -30 17 -14 14 -26 31 -28 37 -1 7 -6 15 -12
19 -6 5 -6 8 1 8 13 0 32 -20 33 -34 0 -6 6 -11 13 -12 7 -1 27 -5 44 -9 24
-5 37 -1 61 19 17 14 32 24 34 22 2 -3 4 16 4 40 0 24 -3 44 -7 44 -5 0 -8 10
-8 23 0 16 -3 18 -9 8 -7 -11 -10 -9 -15 6 -5 15 -14 20 -34 18 -48 -4 -115
-47 -111 -71 3 -21 -2 -44 -10 -44 -7 0 -8 29 -2 73 1 5 6 5 13 1 7 -5 9 -2 5
9 -8 22 16 40 33 24 10 -10 11 -9 5 2 -6 11 -4 13 9 8 10 -4 19 -1 22 7 5 12
22 14 44 6z m19 -66 c25 -32 26 -52 5 -82 -32 -46 -114 -18 -114 40 0 62 71
90 109 42z m-54 -174 c3 -5 1 -10 -4 -10 -6 0 -11 5 -11 10 0 6 2 10 4 10 3 0
8 -4 11 -10z"/>
    <path d="M2195 1850 c3 -4 -2 -10 -10 -14 -8 -3 -15 -12 -15 -21 0 -8 -5 -15
-11 -15 -6 0 -9 -15 -7 -35 1 -23 -3 -40 -12 -46 -13 -9 -13 -10 0 -6 8 2 27
-7 42 -20 34 -32 81 -37 104 -12 9 11 23 19 31 19 8 0 12 4 8 9 -3 5 2 17 11
25 12 13 13 20 5 30 -9 11 -9 16 0 21 8 6 7 10 -5 17 -9 5 -14 13 -11 19 5 8
-9 13 -18 7 -2 -2 -11 3 -20 10 -18 15 -100 26 -92 12z m95 -40 c29 -29 26
-74 -6 -99 -34 -27 -52 -26 -81 1 -44 41 -17 118 42 118 14 0 34 -9 45 -20z"/>
    <path d="M2215 1769 c-4 -6 -5 -12 -2 -15 2 -3 7 2 10 11 7 17 1 20 -8 4z"/>
    <path d="M1882 1514 c-7 -8 -8 -14 -3 -14 10 0 25 19 20 25 -2 1 -10 -3 -17
-11z"/>
    <path d="M2373 1493 c5 -8 -5 -11 -37 -9 -33 3 -43 0 -39 -9 2 -8 -7 -21 -21
-30 -28 -18 -33 -44 -15 -77 7 -13 7 -18 1 -14 -6 3 -14 1 -18 -5 -4 -8 -3 -9
4 -5 7 4 12 2 12 -4 0 -6 21 -20 46 -32 40 -17 50 -18 73 -7 14 7 30 12 34 10
5 -1 6 2 3 7 -3 5 2 17 12 28 27 28 16 78 -26 122 -19 20 -32 32 -29 25z m23
-59 c20 -19 24 -31 20 -52 -8 -32 -40 -62 -68 -62 -25 0 -68 44 -68 70 0 12
11 32 25 45 31 32 59 32 91 -1z"/>
    <path d="M1406 1942 c-3 -5 1 -9 9 -9 8 0 12 4 9 9 -3 4 -7 8 -9 8 -2 0 -6 -4
-9 -8z"/>
    <path d="M1240 1932 c-105 -48 -128 -168 -45 -241 44 -38 94 -48 145 -28 l38
15 68 -55 c132 -105 124 -90 124 -225 0 -65 -3 -118 -6 -118 -4 0 -64 26 -135
57 l-129 58 0 37 c0 72 -87 138 -167 125 -136 -23 -165 -209 -43 -272 44 -23
110 -19 149 8 l33 22 136 -68 c197 -98 232 -140 232 -287 0 -86 -14 -134 -50
-163 -17 -14 -90 -44 -177 -72 -81 -27 -151 -51 -155 -54 -4 -3 93 -5 216 -3
216 3 224 3 243 25 35 38 43 84 43 240 l0 151 -47 100 -48 101 -5 160 -5 160
-29 3 c-17 2 -65 31 -115 70 l-86 67 3 45 c3 54 -22 101 -70 130 -32 20 -88
25 -118 12z m36 -20 c-2 -4 10 -8 28 -8 19 0 45 -10 61 -22 15 -12 24 -22 20
-22 -4 0 -1 -10 6 -22 16 -26 18 -84 3 -81 -5 1 -10 -7 -10 -17 0 -14 3 -16
13 -8 12 10 14 8 12 -8 0 -3 21 -21 46 -40 28 -22 43 -40 38 -47 -4 -7 2 -5
12 3 11 9 16 10 11 3 -4 -8 -2 -13 8 -13 22 0 28 -16 12 -29 -11 -9 -20 -6
-43 13 -55 50 -72 70 -66 80 4 6 -1 5 -11 -3 -13 -11 -16 -11 -14 -2 3 15 -29
24 -37 11 -3 -5 -13 -6 -22 -3 -10 4 -14 2 -10 -4 4 -6 -13 -9 -44 -8 -41 1
-55 7 -78 31 -32 32 -49 84 -29 84 9 0 9 3 0 12 -8 8 -8 16 0 32 15 28 34 46
42 39 3 -4 6 0 6 8 0 12 2 12 9 0 7 -11 11 -9 20 8 7 11 14 21 17 21 3 0 3 -4
0 -8z m291 -315 c-3 -9 4 -12 24 -11 16 1 29 -2 29 -8 0 -5 3 -7 8 -5 4 3 5
-57 2 -134 -3 -76 -1 -139 3 -139 4 0 3 -9 -3 -19 -15 -29 -12 -37 6 -15 11
13 14 14 11 4 -3 -9 8 -35 24 -59 16 -23 25 -40 20 -37 -5 4 -3 -7 5 -24 9
-16 12 -35 8 -42 -5 -7 -2 -9 8 -6 12 5 14 -19 14 -173 -1 -139 -4 -182 -14
-188 -8 -5 -13 -11 -12 -15 5 -21 -14 -27 -93 -30 -59 -2 -87 1 -87 8 0 7 -4
6 -8 -2 -6 -9 -16 -10 -33 -4 -24 9 -23 9 9 16 18 4 30 11 27 15 -2 5 7 6 22
3 16 -3 24 -1 20 5 -6 10 40 38 56 34 5 -1 6 3 3 8 -3 5 1 12 10 15 8 3 13 10
10 15 -3 5 4 11 16 14 19 5 20 8 7 23 -8 10 -9 15 -2 11 9 -6 11 21 10 108 -1
63 -6 115 -11 115 -5 0 -6 3 -3 6 4 4 -5 20 -18 36 -14 16 -23 34 -19 39 3 5
2 9 -3 8 -14 -4 -43 13 -38 22 3 4 -4 13 -15 19 -11 6 -20 9 -20 6 0 -2 -26 9
-57 26 -32 17 -71 37 -88 46 -16 8 -33 20 -37 26 -4 6 -8 7 -8 3 0 -9 -61 23
-72 38 -5 6 -8 5 -8 -3 0 -7 -4 -10 -10 -7 -5 3 -10 -1 -10 -9 0 -9 -7 -16
-15 -16 -8 0 -15 -5 -15 -12 0 -6 -2 -9 -6 -6 -3 3 -20 2 -39 -2 -23 -5 -40
-3 -53 6 -11 7 -22 10 -26 7 -3 -3 -6 -1 -6 6 0 7 -5 9 -12 5 -7 -4 -10 -4 -6
0 4 5 -2 17 -12 29 -11 11 -17 24 -14 29 3 4 -1 8 -8 8 -9 0 -10 2 -2 8 7 4
11 19 9 34 -2 18 6 37 26 59 26 29 36 33 87 35 37 1 50 -1 37 -6 -17 -7 -17
-9 -2 -9 9 -1 19 0 21 2 10 6 46 -39 52 -67 11 -46 11 -45 14 -53 1 -5 2 -11
1 -15 0 -5 6 -8 14 -8 9 0 18 -7 21 -15 4 -8 10 -13 14 -10 10 6 77 -21 85
-35 4 -6 12 -10 18 -9 26 3 38 -1 32 -12 -4 -6 0 -9 11 -7 10 2 19 -2 19 -9 0
-7 7 -18 15 -25 12 -11 12 -11 0 6 -14 18 -13 19 3 13 10 -4 23 -7 28 -7 5 0
14 -10 19 -22 l9 -23 0 23 c1 12 6 22 12 22 5 0 7 5 4 10 -3 6 -1 10 4 10 6 0
11 -5 11 -12 0 -6 3 -8 6 -5 4 4 2 12 -3 19 -6 7 -9 22 -7 32 6 43 6 92 -1
109 -4 10 -5 35 -2 56 2 21 1 44 -4 52 -4 7 -4 18 1 24 6 7 2 11 -10 11 -10 0
-16 -4 -14 -8 3 -4 3 -8 0 -8 -3 0 -10 10 -17 21 -9 17 -8 23 2 30 19 12 22
11 16 -4z"/>
    <path d="M1260 1882 c-19 -9 -39 -22 -43 -29 -5 -8 -12 -11 -18 -8 -5 4 -6 -2
-2 -11 5 -13 3 -15 -8 -9 -11 7 -12 6 -2 -6 7 -8 10 -30 8 -49 -3 -25 -2 -31
5 -20 7 10 10 11 11 3 1 -7 2 -17 3 -22 0 -6 7 -16 15 -23 10 -10 12 -10 7 0
-4 6 -2 12 3 12 6 0 11 -7 11 -16 0 -10 5 -12 13 -7 13 8 29 12 69 16 14 1 26
4 26 7 -2 12 15 60 21 60 4 0 7 9 7 19 0 11 -4 17 -9 14 -5 -3 -6 4 -2 17 5
15 3 20 -3 16 -6 -3 -13 3 -17 14 -3 11 -9 19 -13 18 -4 -1 -16 3 -27 9 -17 9
-28 8 -55 -5z m72 -39 c22 -20 23 -70 1 -95 -36 -40 -113 -8 -113 47 0 54 71
85 112 48z"/>
    <path d="M1460 1661 c0 -6 4 -13 10 -16 6 -3 7 1 4 9 -7 18 -14 21 -14 7z"/>
    <path d="M1102 1490 c-12 -14 -18 -16 -24 -7 -5 8 -7 5 -8 -8 -2 -49 -5 -75
-11 -75 -3 0 -6 -7 -6 -15 0 -8 4 -12 9 -9 4 3 8 -3 8 -12 0 -10 3 -15 6 -11
4 3 14 -2 23 -13 20 -24 68 -28 101 -10 14 8 29 13 34 12 5 -2 6 4 3 12 -4 11
-1 13 11 9 15 -6 15 -5 3 10 -7 9 -10 17 -5 17 5 0 8 15 8 32 -1 21 -6 32 -15
30 -10 -2 -10 0 0 12 9 11 9 16 0 22 -8 4 -9 3 -5 -4 11 -18 -5 -14 -18 3 -6
8 -30 17 -54 20 -34 3 -47 0 -60 -15z m111 -42 c17 -23 18 -31 8 -56 -30 -71
-131 -54 -131 21 0 68 81 91 123 35z"/>
    <path d="M1335 1330 c3 -5 8 -10 11 -10 2 0 4 5 4 10 0 6 -5 10 -11 10 -5 0
-7 -4 -4 -10z"/>
    <path d="M1680 1110 c-6 -11 -8 -20 -6 -20 3 0 10 9 16 20 6 11 8 20 6 20 -3
0 -10 -9 -16 -20z"/>
    <path d="M2383 1875 c0 -8 4 -12 9 -9 5 3 6 10 3 15 -9 13 -12 11 -12 -6z"/>
    <path d="M1385 1591 c-3 -5 -2 -12 3 -15 5 -3 9 1 9 9 0 17 -3 19 -12 6z"/>
    <path d="M2040 1540 c-9 -6 -10 -10 -3 -10 6 0 15 5 18 10 8 12 4 12 -15 0z"/>
    <path d="M2063 1515 c0 -8 4 -12 9 -9 5 3 6 10 3 15 -9 13 -12 11 -12 -6z"/>
    <path d="M1893 1333 c0 -7 3 -11 5 -8 3 3 11 0 18 -6 8 -7 14 -7 19 1 4 6 1 9
-7 8 -7 -2 -12 2 -11 8 1 6 -4 11 -11 11 -7 0 -13 -6 -13 -14z"/>
    <path d="M1530 820 c-9 -6 -10 -10 -3 -10 6 0 15 5 18 10 8 12 4 12 -15 0z"/>
  </g>
</svg>
